<svg xmlns="http://www.w3.org/2000/svg" viewBox="0 0 31 30"><defs><style>
      .cls-1 {
        fill-rule: evenodd;
      }
    </style></defs><path id="twitter" class="cls-1" d="M10.53,25.279C20.856,25.279,26.5,16.72,26.5,9.3c0-.243,0-0.485-0.016-0.726a11.422,11.422,0,0,0,2.8-2.908,11.207,11.207,0,0,1-3.224.884A5.636,5.636,0,0,0,28.532,3.44,11.252,11.252,0,0,1,24.967,4.8,5.62,5.62,0,0,0,15.4,9.926,15.934,15.934,0,0,1,3.829,4.058a5.624,5.624,0,0,0,1.738,7.5,5.569,5.569,0,0,1-2.543-.7c0,0.024,0,.047,0,0.072a5.619,5.619,0,0,0,4.5,5.507,5.6,5.6,0,0,1-2.535.1,5.62,5.62,0,0,0,5.244,3.9,11.26,11.26,0,0,1-6.972,2.4,11.434,11.434,0,0,1-1.339-.078,15.886,15.886,0,0,0,8.605,2.523"/></svg>