<svg xmlns="http://www.w3.org/2000/svg" viewBox="0 0 31 30"><defs><style>
      .cls-1 {
        fill-rule: evenodd;
      }
    </style></defs><path id="LINE" class="cls-1" d="M30.244,12.245c0-6.5-6.609-11.781-14.733-11.781S0.779,5.749.779,12.245c0,5.824,5.241,10.7,12.321,11.623a1.829,1.829,0,0,1,1.3.716,2.942,2.942,0,0,1,.048,1.313s-0.173,1.024-.21,1.243c-0.064.367-.3,1.436,1.276,0.782S24,23,27.086,19.493h0A10.4,10.4,0,0,0,30.244,12.245Zm-19.93,3.468a0.285,0.285,0,0,1-.287.283H5.9a0.287,0.287,0,0,1-.2-0.079l0,0,0,0a0.279,0.279,0,0,1-.08-0.2h0V9.388A0.285,0.285,0,0,1,5.9,9.106H6.932a0.285,0.285,0,0,1,.287.282v5.024h2.808a0.285,0.285,0,0,1,.287.283v1.018Zm2.492,0a0.285,0.285,0,0,1-.287.282H11.484a0.285,0.285,0,0,1-.287-0.282V9.388a0.285,0.285,0,0,1,.287-0.282h1.034a0.285,0.285,0,0,1,.287.282v6.325Zm7.113,0a0.284,0.284,0,0,1-.287.282H18.6a0.28,0.28,0,0,1-.073-0.01h0l-0.02-.006-0.009,0-0.014-.006-0.014-.007-0.008,0-0.018-.011,0,0a0.278,0.278,0,0,1-.073-0.069l-2.946-3.92v3.757A0.285,0.285,0,0,1,15.13,16H14.1a0.285,0.285,0,0,1-.287-0.282V9.388A0.285,0.285,0,0,1,14.1,9.106h1.058l0.015,0,0.012,0,0.017,0,0.01,0,0.017,0.005,0.009,0,0.017,0.007,0.009,0,0.015,0.009L15.284,9.15,15.3,9.16l0.007,0.006,0.015,0.013,0.005,0L15.344,9.2l0,0a0.264,0.264,0,0,1,.022.029l2.942,3.915V9.388A0.285,0.285,0,0,1,18.6,9.106h1.033a0.285,0.285,0,0,1,.287.282v6.325Zm5.706-5.307a0.284,0.284,0,0,1-.287.283H22.53v1.069h2.808a0.285,0.285,0,0,1,.287.283V13.06a0.284,0.284,0,0,1-.287.283H22.53v1.069h2.808a0.285,0.285,0,0,1,.287.283v1.018a0.285,0.285,0,0,1-.287.283H21.209a0.286,0.286,0,0,1-.2-0.079l0,0,0,0a0.279,0.279,0,0,1-.08-0.2h0V9.389h0A0.279,0.279,0,0,1,21,9.193l0,0,0,0a0.288,0.288,0,0,1,.2-0.08h4.129a0.285,0.285,0,0,1,.287.283v1.018Z"/></svg>